<svg xmlns="http://www.w3.org/2000/svg" viewBox="0 0 360 360">
<path fill="#d5523e" fill-rule="evenodd" d="M106.2,64.4C105.9,64.5 105.7,64.6 105.5,64.6C105.3,64.7 105.1,64.8 104.9,64.8C104.7,64.9 104.4,65.0 104.2,65.1C104.0,65.1 103.8,65.2 103.6,65.3C103.4,65.4 103.2,65.5 102.9,65.6C102.7,65.7 102.5,65.9 102.3,66.0C102.1,66.1 101.8,66.2 101.6,66.3C101.4,66.4 101.2,66.5 101.0,66.7C100.7,66.8 100.5,66.9 100.3,67.1C100.1,67.2 99.9,67.4 99.7,67.5C99.4,67.7 99.2,67.8 99.0,68.0C98.8,68.1 98.6,68.3 98.4,68.4C98.2,68.6 98.0,68.7 97.8,68.9C97.6,69.1 97.4,69.3 97.2,69.4C97.0,69.6 96.8,69.8 96.6,70.0C96.5,70.2 96.3,70.4 96.1,70.6C95.9,70.8 95.8,71.0 95.6,71.2C95.4,71.4 95.3,71.6 95.1,71.8C95.0,72.0 94.8,72.2 94.7,72.4C94.5,72.6 94.4,72.8 94.2,73.1C94.1,73.3 94.0,73.5 93.8,73.7C93.7,73.9 93.6,74.1 93.4,74.4C93.3,74.6 93.2,74.8 93.1,75.0C93.0,75.2 92.9,75.5 92.7,75.7C92.6,75.9 92.5,76.1 92.4,76.4C92.3,76.6 92.2,76.8 92.2,77.0C92.1,77.3 92.0,77.5 91.9,77.7C91.8,78.0 91.8,78.2 91.7,78.4C91.6,78.7 91.6,78.9 91.5,79.1C91.5,79.4 91.4,79.6 91.4,79.8C91.3,80.1 91.3,80.3 91.2,80.6C91.2,80.8 91.2,81.0 91.1,81.3C91.1,81.5 91.1,81.8 91.1,82.0C91.1,82.3 91.0,82.5 91.0,82.8C91.0,83.0 91.0,83.3 91.0,83.5C91.0,83.7 91.0,84.0 91.0,84.2C91.0,84.5 91.0,84.8 91.0,85.0C91.0,85.2 91.0,85.5 91.0,85.8C91.0,86.0 91.0,86.2 91.0,86.5C91.0,86.7 91.0,87.0 91.0,87.2C91.1,87.5 91.1,87.7 91.1,88.0C91.1,88.2 91.1,88.5 91.2,88.7C91.2,88.9 91.2,89.2 91.3,89.4C91.3,89.6 91.4,89.9 91.5,90.1C91.5,90.3 91.6,90.6 91.7,90.8C91.7,91.0 91.8,91.3 91.9,91.5C92.0,91.7 92.1,92.0 92.1,92.2C92.2,92.4 92.3,92.6 92.4,92.9C92.5,93.1 92.6,93.3 92.7,93.5C92.8,93.8 92.9,94.0 93.0,94.2C93.1,94.4 93.3,94.7 93.4,94.9C93.5,95.1 93.6,95.3 93.7,95.6C93.9,95.8 94.0,96.0 94.1,96.2C94.3,96.4 94.4,96.6 94.5,96.8C94.7,97.1 94.8,97.3 95.0,97.5C95.1,97.7 95.3,97.9 95.4,98.1C95.6,98.3 95.8,98.5 95.9,98.7C96.1,98.9 96.3,99.1 96.4,99.2C96.6,99.4 96.8,99.6 97.0,99.8C97.1,100.0 97.3,100.1 97.5,100.3C97.7,100.5 97.9,100.6 98.1,100.8C98.3,100.9 98.5,101.1 98.7,101.2C98.9,101.4 99.1,101.5 99.3,101.7C99.5,101.8 99.7,102.0 100.0,102.1C100.2,102.2 100.4,102.4 100.6,102.5C100.8,102.6 101.0,102.7 101.3,102.8C101.5,103.0 101.7,103.1 101.9,103.2C102.1,103.3 102.4,103.5 102.6,103.6C102.8,103.7 103.0,103.8 103.2,103.9C103.5,104.0 103.7,104.1 103.9,104.2C104.1,104.3 104.4,104.4 104.6,104.5C104.8,104.6 105.0,104.7 105.3,104.8C105.5,104.9 105.7,105.0 105.9,105.1C106.2,105.2 106.4,105.2 106.6,105.3C106.9,105.4 107.1,105.4 107.3,105.5C107.6,105.5 107.8,105.5 108.1,105.6C108.3,105.6 108.5,105.6 108.8,105.7C109.0,105.7 109.3,105.7 109.5,105.7C109.8,105.7 110.0,105.7 110.3,105.7C110.5,105.7 110.8,105.7 111.0,105.8C111.2,105.8 111.5,105.8 111.8,105.8C112.0,105.8 112.2,105.8 112.5,105.8C112.8,105.7 113.0,105.8 113.2,105.7C113.5,105.7 113.7,105.7 114.0,105.7C114.2,105.7 114.5,105.7 114.7,105.7C115.0,105.7 115.2,105.6 115.5,105.6C115.7,105.6 116.0,105.6 116.2,105.5C116.4,105.5 116.7,105.4 116.9,105.4C117.2,105.4 117.4,105.3 117.6,105.2C117.9,105.2 118.1,105.1 118.3,105.0C118.6,105.0 118.8,104.9 119.0,104.8C119.3,104.8 119.5,104.7 119.7,104.6C119.9,104.5 120.2,104.4 120.4,104.3C120.6,104.2 120.8,104.1 121.1,104.0C121.3,103.9 121.5,103.8 121.7,103.7C121.9,103.6 122.2,103.4 122.4,103.3C122.6,103.2 122.8,103.1 123.0,102.9C123.3,102.8 123.5,102.7 123.7,102.5C123.9,102.4 124.1,102.2 124.3,102.1C124.5,101.9 124.8,101.8 125.0,101.6C125.2,101.5 125.4,101.3 125.6,101.2C125.8,101.0 126.0,100.8 126.2,100.6C126.4,100.5 126.6,100.3 126.8,100.1C126.9,99.9 127.1,99.7 127.3,99.6C127.5,99.4 127.7,99.2 127.8,99.0C128.0,98.8 128.2,98.6 128.3,98.4C128.5,98.2 128.6,97.9 128.8,97.7C128.9,97.5 129.1,97.3 129.2,97.1C129.4,96.9 129.5,96.7 129.7,96.4C129.8,96.2 129.9,96.0 130.1,95.8C130.2,95.6 130.3,95.4 130.4,95.1C130.6,94.9 130.7,94.7 130.8,94.5C130.9,94.3 131.0,94.0 131.1,93.8C131.2,93.6 131.3,93.4 131.4,93.1C131.5,92.9 131.6,92.7 131.7,92.5C131.8,92.2 131.8,92.0 131.9,91.8C132.0,91.5 132.1,91.3 132.1,91.1C132.2,90.8 132.3,90.6 132.3,90.4C132.4,90.1 132.4,89.9 132.5,89.7C132.5,89.4 132.5,89.2 132.6,88.9C132.6,88.7 132.6,88.5 132.6,88.2C132.7,88.0 132.7,87.7 132.7,87.5C132.7,87.2 132.7,87.0 132.7,86.7C132.7,86.5 132.7,86.2 132.8,86.0C132.8,85.8 132.8,85.5 132.8,85.2C132.8,85.0 132.8,84.8 132.8,84.5C132.8,84.2 132.8,84.0 132.8,83.8C132.8,83.5 132.8,83.2 132.8,83.0C132.7,82.8 132.7,82.5 132.7,82.3C132.7,82.0 132.7,81.8 132.7,81.5C132.7,81.3 132.7,81.0 132.7,80.8C132.6,80.5 132.6,80.3 132.6,80.1C132.5,79.8 132.5,79.6 132.5,79.3C132.4,79.1 132.4,78.9 132.3,78.6C132.2,78.4 132.2,78.2 132.1,77.9C132.0,77.7 131.9,77.5 131.8,77.3C131.7,77.0 131.6,76.8 131.5,76.6C131.4,76.4 131.3,76.1 131.2,75.9C131.1,75.7 131.0,75.5 130.9,75.2C130.8,75.0 130.7,74.8 130.6,74.6C130.5,74.4 130.3,74.1 130.2,73.9C130.1,73.7 129.9,73.5 129.8,73.3C129.7,73.1 129.6,72.8 129.4,72.6C129.3,72.4 129.1,72.2 129.0,72.0C128.8,71.8 128.6,71.6 128.5,71.4C128.3,71.1 128.1,70.9 128.0,70.7C127.8,70.5 127.6,70.3 127.4,70.1C127.2,69.9 127.0,69.7 126.8,69.5C126.6,69.4 126.4,69.2 126.2,69.0C126.0,68.8 125.8,68.6 125.6,68.4C125.4,68.3 125.2,68.1 125.0,67.9C124.8,67.8 124.6,67.6 124.4,67.5C124.1,67.3 123.9,67.2 123.7,67.1C123.5,66.9 123.3,66.8 123.1,66.7C122.8,66.5 122.6,66.4 122.4,66.3C122.2,66.2 122.0,66.0 121.8,65.9C121.5,65.8 121.3,65.7 121.1,65.6C120.9,65.5 120.6,65.4 120.4,65.3C120.2,65.2 120.0,65.1 119.7,65.0C119.5,64.9 119.3,64.8 119.1,64.7C118.8,64.7 118.6,64.6 118.4,64.5C118.1,64.4 117.9,64.4 117.7,64.3C117.4,64.3 117.2,64.2 116.9,64.2C116.7,64.2 116.5,64.1 116.2,64.1C116.0,64.1 115.7,64.1 115.5,64.1C115.2,64.0 115.0,64.0 114.7,64.0C114.5,64.0 114.2,64.0 114.0,64.0C113.8,64.0 113.5,64.0 113.2,64.0C113.0,64.0 112.8,64.0 112.5,64.0C112.2,64.0 112.0,64.0 111.8,64.0C111.5,64.0 111.2,64.0 111.0,64.0C110.8,64.0 110.5,64.0 110.3,64.0C110.0,64.0 109.8,64.0 109.5,64.0C109.3,64.0 109.1,64.0 108.8,64.1C108.6,64.1 108.4,64.1 108.1,64.1C107.9,64.1 107.7,64.2 107.5,64.2C107.2,64.2 107.0,64.2 106.8,64.3C106.6,64.3 106.4,64.4 106.2,64.4ZM49.1,53.6C48.6,53.9 48.1,54.4 47.6,55.1C47.2,55.7 46.8,56.4 46.5,57.3C46.2,58.2 45.9,59.1 45.7,60.2C45.5,61.2 45.4,62.4 45.3,63.5C45.2,64.7 45.2,66.0 45.3,67.2C45.3,68.4 45.4,69.7 45.5,71.0C45.7,72.3 45.9,73.6 46.1,74.8C46.3,76.1 46.5,77.4 46.8,78.7C47.1,79.9 47.4,81.2 47.7,82.4C48.0,83.7 48.3,84.9 48.7,86.1C49.0,87.3 49.4,88.5 49.8,89.7C50.2,90.9 50.6,92.1 51.0,93.3C51.4,94.5 51.8,95.7 52.3,96.8C52.7,98.0 53.2,99.1 53.7,100.3C54.2,101.4 54.7,102.5 55.2,103.6C55.7,104.8 56.2,105.9 56.7,107.0C57.3,108.1 57.8,109.1 58.4,110.2C58.9,111.3 59.5,112.4 60.1,113.4C60.6,114.5 61.2,115.6 61.7,116.7C62.3,117.8 62.8,118.8 63.3,119.9C63.8,121.0 64.3,122.1 64.8,123.3C65.3,124.4 65.8,125.5 66.2,126.7C66.6,127.9 67.0,129.1 67.3,130.3C67.6,131.5 67.9,132.7 68.2,134.0C68.4,135.3 68.7,136.6 68.9,137.9C69.1,139.2 69.2,140.5 69.3,141.8C69.5,143.2 69.6,144.5 69.6,145.9C69.7,147.3 69.8,148.7 69.8,150.0C69.8,151.4 69.8,152.8 69.8,154.2C69.8,155.6 69.7,157.0 69.7,158.4C69.6,159.7 69.6,161.1 69.5,162.5C69.4,163.9 69.3,165.2 69.2,166.6C69.0,167.9 68.9,169.3 68.7,170.6C68.6,171.9 68.4,173.3 68.2,174.6C68.1,175.9 67.8,177.2 67.6,178.5C67.4,179.8 67.2,181.1 66.9,182.4C66.7,183.7 66.5,185.0 66.2,186.3C65.9,187.5 65.7,188.8 65.4,190.1C65.1,191.3 64.9,192.6 64.6,193.9C64.3,195.1 64.0,196.4 63.7,197.7C63.4,198.9 63.1,200.2 62.8,201.4C62.5,202.7 62.2,204.0 61.9,205.2C61.6,206.5 61.3,207.7 60.9,209.0C60.6,210.2 60.3,211.5 60.0,212.7C59.7,214.0 59.3,215.3 59.0,216.5C58.7,217.8 58.4,219.0 58.1,220.3C57.9,221.5 57.6,222.7 57.4,224.0C57.2,225.2 57.1,226.4 57.0,227.6C56.9,228.8 56.8,230.0 56.8,231.2C56.8,232.3 56.9,233.5 57.1,234.6C57.2,235.7 57.5,236.8 57.8,237.9C58.1,238.9 58.6,240.0 59.1,240.9C59.6,241.9 60.2,242.9 60.8,243.8C61.5,244.7 62.2,245.6 62.9,246.4C63.7,247.3 64.5,248.1 65.3,249.0C66.1,249.8 66.9,250.6 67.7,251.5C68.6,252.3 69.4,253.1 70.2,254.0C71.0,254.8 71.8,255.6 72.5,256.5C73.2,257.4 73.9,258.3 74.6,259.3C75.2,260.2 75.8,261.2 76.4,262.3C76.9,263.3 77.4,264.4 77.9,265.4C78.4,266.5 78.8,267.6 79.3,268.8C79.7,269.9 80.2,271.0 80.6,272.2C81.1,273.3 81.5,274.4 82.0,275.5C82.5,276.6 82.9,277.7 83.5,278.7C84.0,279.7 84.5,280.6 85.1,281.5C85.7,282.3 86.4,283.1 87.0,283.8C87.6,284.4 88.3,285.0 89.0,285.4C89.7,285.8 90.4,286.0 91.0,286.2C91.7,286.3 92.4,286.3 93.0,286.1C93.7,285.9 94.3,285.5 94.9,285.1C95.4,284.6 95.9,284.0 96.4,283.2C96.9,282.5 97.4,281.7 97.8,280.8C98.2,279.9 98.6,278.9 99.0,277.9C99.4,277.0 99.8,275.9 100.2,275.0C100.7,274.0 101.1,273.0 101.5,272.2C101.9,271.4 102.3,270.5 102.8,269.9C103.3,269.3 103.8,268.7 104.4,268.4C104.9,268.0 105.5,267.8 106.1,267.8C106.7,267.7 107.4,267.8 108.0,268.1C108.6,268.3 109.3,268.8 109.9,269.3C110.5,269.8 111.1,270.5 111.6,271.3C112.2,272.0 112.8,272.9 113.3,273.9C113.9,274.8 114.4,275.9 114.9,276.9C115.4,278.0 115.9,279.1 116.4,280.2C116.9,281.4 117.4,282.5 117.9,283.6C118.4,284.7 118.9,285.9 119.4,286.9C119.9,288.0 120.5,289.0 121.1,289.9C121.6,290.8 122.3,291.7 122.9,292.4C123.5,293.2 124.1,293.9 124.8,294.4C125.4,294.9 126.1,295.3 126.8,295.5C127.4,295.8 128.1,295.9 128.7,295.8C129.4,295.8 130.0,295.6 130.6,295.2C131.1,294.8 131.7,294.3 132.1,293.6C132.6,293.0 133.0,292.2 133.4,291.3C133.7,290.4 134.0,289.4 134.3,288.3C134.5,287.2 134.7,286.0 134.9,284.8C135.0,283.5 135.1,282.2 135.2,280.9C135.3,279.6 135.3,278.3 135.3,277.0C135.4,275.6 135.4,274.3 135.4,273.0C135.5,271.7 135.5,270.4 135.6,269.2C135.7,268.0 135.8,266.7 136.0,265.5C136.2,264.4 136.5,263.2 136.8,262.1C137.1,261.0 137.4,259.9 137.9,258.9C138.3,257.8 138.8,256.8 139.4,255.9C139.9,254.9 140.6,253.9 141.2,253.0C141.8,252.1 142.5,251.2 143.2,250.3C143.8,249.4 144.5,248.5 145.1,247.6C145.6,246.7 146.2,245.9 146.7,245.0C147.2,244.1 147.6,243.3 147.9,242.4C148.2,241.5 148.4,240.7 148.5,239.8C148.6,239.0 148.6,238.1 148.4,237.3C148.3,236.5 148.0,235.6 147.6,234.8C147.2,234.0 146.7,233.2 146.1,232.4C145.5,231.6 144.9,230.8 144.2,230.0C143.5,229.2 142.7,228.4 142.0,227.6C141.2,226.7 140.4,225.9 139.6,225.0C138.8,224.2 138.0,223.3 137.3,222.4C136.6,221.5 135.9,220.6 135.3,219.7C134.7,218.7 134.1,217.7 133.6,216.7C133.1,215.7 132.6,214.7 132.2,213.6C131.8,212.5 131.5,211.4 131.2,210.3C130.9,209.2 130.7,208.0 130.5,206.9C130.2,205.7 130.1,204.5 129.9,203.3C129.7,202.2 129.6,201.0 129.4,199.8C129.3,198.6 129.1,197.4 128.9,196.2C128.7,195.0 128.5,193.8 128.3,192.6C128.1,191.3 127.9,190.1 127.6,188.9C127.4,187.7 127.1,186.5 126.9,185.2C126.6,184.0 126.3,182.7 126.1,181.5C125.8,180.2 125.6,179.0 125.3,177.7C125.1,176.4 124.8,175.1 124.6,173.8C124.4,172.5 124.2,171.2 124.1,169.9C124.0,168.7 123.9,167.4 123.9,166.1C123.9,164.9 123.9,163.7 124.1,162.5C124.2,161.4 124.4,160.2 124.7,159.2C125.0,158.1 125.3,157.1 125.8,156.2C126.2,155.3 126.8,154.4 127.4,153.6C128.1,152.8 128.8,152.2 129.7,151.6C130.5,151.0 131.4,150.4 132.4,150.0C133.4,149.5 134.5,149.1 135.6,148.7C136.7,148.3 137.8,148.0 139.0,147.7C140.2,147.4 141.5,147.1 142.7,146.9C143.9,146.6 145.2,146.3 146.4,146.0C147.6,145.7 148.8,145.4 149.9,145.1C151.0,144.7 152.1,144.3 153.1,143.8C154.1,143.4 155.1,142.9 155.9,142.3C156.8,141.8 157.5,141.2 158.1,140.6C158.8,139.9 159.3,139.3 159.6,138.6C160.0,137.9 160.2,137.1 160.2,136.4C160.3,135.7 160.2,135.0 160.0,134.2C159.7,133.5 159.4,132.8 158.9,132.2C158.4,131.5 157.7,130.9 157.0,130.4C156.2,129.8 155.3,129.3 154.4,128.8C153.4,128.4 152.4,127.9 151.3,127.6C150.2,127.2 149.0,126.8 147.8,126.5C146.6,126.2 145.3,125.9 144.1,125.7C142.8,125.4 141.5,125.2 140.3,125.0C139.0,124.7 137.7,124.5 136.4,124.3C135.1,124.0 133.8,123.8 132.5,123.5C131.2,123.3 130.0,123.0 128.7,122.7C127.5,122.4 126.2,122.1 125.0,121.8C123.7,121.5 122.5,121.2 121.3,120.8C120.0,120.5 118.8,120.1 117.6,119.7C116.4,119.4 115.2,119.0 114.0,118.6C112.8,118.1 111.7,117.7 110.5,117.3C109.3,116.8 108.2,116.3 107.1,115.9C105.9,115.4 104.8,114.9 103.7,114.3C102.6,113.8 101.5,113.2 100.4,112.6C99.4,112.1 98.3,111.5 97.2,110.8C96.2,110.2 95.2,109.6 94.2,108.9C93.1,108.2 92.1,107.5 91.2,106.8C90.2,106.1 89.2,105.3 88.3,104.5C87.3,103.8 86.4,103.0 85.5,102.1C84.6,101.3 83.7,100.5 82.9,99.6C82.0,98.7 81.2,97.9 80.4,97.0C79.6,96.0 78.8,95.1 78.0,94.2C77.3,93.2 76.6,92.2 75.9,91.3C75.2,90.3 74.5,89.3 73.8,88.2C73.2,87.2 72.6,86.2 72.0,85.1C71.3,84.1 70.8,83.0 70.2,81.9C69.6,80.9 69.1,79.8 68.5,78.7C68.0,77.6 67.4,76.4 66.9,75.3C66.4,74.2 65.9,73.1 65.4,71.9C64.9,70.8 64.3,69.7 63.8,68.6C63.3,67.4 62.8,66.3 62.2,65.2C61.7,64.1 61.1,63.0 60.5,62.0C59.9,61.0 59.3,60.0 58.7,59.1C58.1,58.1 57.4,57.3 56.8,56.5C56.1,55.8 55.5,55.1 54.8,54.6C54.2,54.1 53.5,53.6 52.8,53.4C52.2,53.1 51.5,53.0 50.9,53.0C50.3,53.1 49.7,53.3 49.1,53.6Z"/>
<path fill="#f99e45" fill-rule="evenodd" d="M230.7,210.8C230.5,210.8 230.3,211.0 230.1,211.1C229.9,211.2 229.7,211.4 229.5,211.6C229.3,211.8 229.1,212.1 228.9,212.3C228.7,212.6 228.5,212.9 228.3,213.2C228.1,213.5 227.9,213.8 227.7,214.1C227.5,214.4 227.3,214.7 227.1,215.0C226.9,215.3 226.7,215.6 226.5,215.9C226.3,216.3 226.1,216.6 225.9,216.9C225.7,217.2 225.5,217.5 225.2,217.8C225.0,218.0 224.8,218.3 224.5,218.6C224.3,218.9 224.1,219.2 223.8,219.5C223.6,219.7 223.3,220.0 223.0,220.3C222.8,220.5 222.5,220.8 222.3,221.1C222.0,221.4 221.8,221.6 221.5,221.9C221.2,222.2 221.0,222.4 220.7,222.7C220.4,223.0 220.2,223.2 219.9,223.5C219.6,223.8 219.4,224.0 219.1,224.3C218.8,224.5 218.5,224.8 218.3,225.0C218.0,225.3 217.7,225.6 217.5,225.8C217.2,226.1 216.9,226.3 216.6,226.6C216.3,226.8 216.1,227.0 215.8,227.3C215.5,227.5 215.2,227.8 214.9,228.0C214.6,228.2 214.3,228.5 214.1,228.7C213.8,228.9 213.5,229.2 213.2,229.4C212.9,229.6 212.6,229.9 212.4,230.1C212.1,230.4 211.8,230.6 211.6,230.9C211.3,231.1 211.0,231.4 210.8,231.7C210.6,231.9 210.3,232.2 210.1,232.5C209.9,232.8 209.7,233.1 209.6,233.4C209.4,233.7 209.3,234.0 209.1,234.3C209.0,234.7 208.9,235.0 208.8,235.3C208.7,235.7 208.7,236.0 208.6,236.4C208.6,236.7 208.6,237.1 208.6,237.5C208.5,237.8 208.6,238.2 208.6,238.6C208.6,239.0 208.6,239.3 208.6,239.7C208.7,240.1 208.7,240.5 208.7,240.9C208.8,241.3 208.8,241.7 208.8,242.1C208.8,242.5 208.9,242.9 208.9,243.3C208.9,243.7 208.9,244.1 208.9,244.5C209.0,244.9 209.0,245.3 209.0,245.8C209.0,246.2 209.0,246.6 209.0,247.0C209.0,247.4 209.0,247.8 209.0,248.2C209.0,248.7 209.0,249.1 209.0,249.5C209.0,249.9 209.0,250.3 209.0,250.8C209.0,251.2 209.0,251.6 209.0,252.0C209.0,252.4 209.0,252.8 209.1,253.2C209.1,253.6 209.1,254.0 209.1,254.4C209.1,254.8 209.2,255.2 209.2,255.6C209.2,256.0 209.2,256.4 209.3,256.8C209.3,257.2 209.4,257.6 209.4,258.0C209.4,258.4 209.5,258.8 209.5,259.2C209.6,259.6 209.6,260.0 209.7,260.4C209.7,260.8 209.7,261.2 209.8,261.6C209.8,262.0 209.8,262.4 209.9,262.8C209.9,263.2 209.9,263.6 209.9,264.0C209.9,264.4 210.0,264.8 210.0,265.3C210.0,265.7 210.0,266.1 210.0,266.5C210.0,266.9 210.0,267.3 210.0,267.8C210.0,268.2 210.0,268.6 210.0,269.0C210.0,269.4 210.0,269.8 210.0,270.2C210.0,270.7 210.0,271.1 210.0,271.5C210.0,271.9 210.0,272.3 210.0,272.8C210.0,273.2 210.0,273.6 210.0,274.0C210.0,274.4 210.0,274.8 210.0,275.2C210.0,275.7 210.0,276.1 210.0,276.5C210.0,276.9 210.0,277.3 210.0,277.8C210.0,278.2 210.0,278.6 210.0,279.0C210.0,279.4 210.0,279.8 210.0,280.2C210.0,280.7 210.0,281.1 210.0,281.5C210.0,281.9 210.0,282.3 210.0,282.8C210.0,283.2 210.0,283.6 210.0,284.0C210.0,284.4 210.0,284.8 210.0,285.2C210.0,285.7 210.0,286.1 210.0,286.5C210.0,286.9 210.1,287.3 210.1,287.7C210.1,288.1 210.1,288.5 210.1,288.9C210.2,289.3 210.2,289.7 210.2,290.1C210.3,290.5 210.3,290.9 210.3,291.3C210.4,291.7 210.4,292.1 210.5,292.5C210.5,292.9 210.6,293.3 210.6,293.7C210.6,294.1 210.7,294.5 210.7,294.9C210.8,295.3 210.8,295.7 210.9,296.1C210.9,296.5 211.0,296.9 211.0,297.3C211.0,297.7 211.1,298.1 211.2,298.5C211.2,298.9 211.3,299.3 211.3,299.7C211.4,300.0 211.5,300.4 211.5,300.8C211.6,301.2 211.7,301.6 211.8,302.0C211.9,302.3 212.0,302.7 212.2,303.1C212.3,303.4 212.4,303.8 212.6,304.1C212.7,304.5 212.9,304.8 213.1,305.1C213.3,305.4 213.5,305.7 213.7,305.9C213.9,306.2 214.1,306.5 214.4,306.7C214.7,306.9 214.9,307.1 215.2,307.3C215.5,307.5 215.8,307.7 216.1,307.8C216.4,307.9 216.7,308.0 217.1,308.1C217.4,308.2 217.8,308.2 218.1,308.3C218.5,308.3 218.8,308.3 219.2,308.3C219.6,308.2 219.9,308.2 220.3,308.1C220.6,308.1 221.0,308.0 221.3,307.9C221.7,307.7 222.0,307.6 222.4,307.5C222.7,307.3 223.0,307.1 223.3,306.9C223.6,306.8 223.9,306.6 224.2,306.3C224.5,306.1 224.8,305.9 225.1,305.6C225.3,305.4 225.6,305.1 225.8,304.9C226.1,304.6 226.3,304.3 226.5,304.0C226.7,303.7 227.0,303.4 227.2,303.1C227.4,302.8 227.5,302.5 227.7,302.2C227.9,301.9 228.1,301.5 228.2,301.2C228.4,300.9 228.5,300.5 228.7,300.2C228.8,299.8 229.0,299.5 229.1,299.1C229.2,298.7 229.4,298.4 229.5,298.0C229.6,297.6 229.7,297.3 229.8,296.9C229.9,296.5 230.0,296.2 230.1,295.8C230.2,295.4 230.3,295.0 230.4,294.6C230.5,294.3 230.6,293.9 230.7,293.5C230.8,293.1 230.8,292.7 230.9,292.3C231.0,292.0 231.1,291.6 231.1,291.2C231.2,290.8 231.3,290.4 231.4,290.1C231.4,289.7 231.5,289.3 231.6,288.9C231.6,288.5 231.7,288.1 231.8,287.8C231.8,287.4 231.9,287.0 231.9,286.6C232.0,286.2 232.1,285.8 232.1,285.4C232.2,285.0 232.3,284.7 232.3,284.3C232.4,283.9 232.4,283.5 232.4,283.1C232.5,282.7 232.5,282.3 232.5,281.9C232.6,281.5 232.6,281.1 232.6,280.7C232.7,280.3 232.7,279.9 232.7,279.5C232.7,279.1 232.7,278.7 232.8,278.2C232.8,277.8 232.8,277.4 232.8,277.0C232.8,276.6 232.9,276.2 232.9,275.8C232.9,275.4 232.9,275.0 233.0,274.6C233.0,274.2 233.0,273.8 233.1,273.4C233.1,273.0 233.2,272.6 233.2,272.2C233.3,271.8 233.3,271.4 233.4,271.0C233.4,270.6 233.4,270.2 233.5,269.8C233.5,269.4 233.5,269.0 233.6,268.6C233.6,268.2 233.6,267.8 233.6,267.4C233.7,267.0 233.7,266.6 233.7,266.2C233.7,265.8 233.7,265.4 233.7,265.0C233.7,264.6 233.7,264.2 233.8,263.8C233.8,263.3 233.8,262.9 233.8,262.5C233.8,262.1 233.8,261.7 233.8,261.2C233.8,260.8 233.8,260.4 233.8,260.0C233.8,259.6 233.8,259.2 233.8,258.8C233.8,258.3 233.8,257.9 233.8,257.5C233.8,257.1 233.8,256.7 233.8,256.2C233.8,255.8 233.8,255.4 233.8,255.0C233.8,254.6 233.8,254.2 233.8,253.8C233.8,253.3 233.8,252.9 233.8,252.5C233.8,252.1 233.8,251.7 233.8,251.2C233.8,250.8 233.8,250.4 233.8,250.0C233.8,249.6 233.8,249.2 233.8,248.8C233.8,248.3 233.8,247.9 233.8,247.5C233.8,247.1 233.8,246.7 233.8,246.2C233.8,245.8 233.8,245.4 233.8,245.0C233.8,244.6 233.8,244.2 233.8,243.8C233.8,243.3 233.8,242.9 233.8,242.5C233.8,242.1 233.8,241.7 233.8,241.2C233.8,240.8 233.8,240.4 233.8,240.0C233.8,239.6 233.8,239.2 233.8,238.8C233.8,238.3 233.8,237.9 233.8,237.5C233.8,237.1 233.8,236.7 233.8,236.2C233.8,235.8 233.8,235.4 233.8,235.0C233.8,234.6 233.8,234.2 233.8,233.8C233.8,233.3 233.8,232.9 233.8,232.5C233.7,232.1 233.7,231.7 233.7,231.3C233.7,230.8 233.7,230.4 233.7,230.0C233.7,229.6 233.7,229.2 233.7,228.8C233.6,228.4 233.6,228.0 233.6,227.6C233.6,227.2 233.5,226.8 233.5,226.4C233.5,226.0 233.4,225.6 233.4,225.2C233.3,224.8 233.3,224.4 233.2,224.0C233.2,223.6 233.2,223.2 233.1,222.8C233.1,222.4 233.0,222.0 233.0,221.6C233.0,221.2 232.9,220.8 232.9,220.4C232.9,220.0 232.9,219.6 232.8,219.2C232.8,218.8 232.8,218.4 232.8,218.0C232.8,217.6 232.8,217.2 232.8,216.7C232.7,216.3 232.7,215.9 232.7,215.5C232.7,215.1 232.7,214.7 232.6,214.3C232.6,214.0 232.6,213.6 232.5,213.2C232.5,212.9 232.4,212.6 232.3,212.3C232.2,212.0 232.1,211.8 232.0,211.5C231.9,211.3 231.8,211.1 231.7,211.0C231.5,210.9 231.4,210.8 231.2,210.8C231.0,210.7 230.8,210.7 230.7,210.8ZM266.8,54.6C266.0,54.8 265.3,55.0 264.5,55.2C263.8,55.5 263.0,55.9 262.2,56.3C261.5,56.7 260.7,57.2 259.9,57.7C259.2,58.2 258.4,58.8 257.6,59.4C256.9,60.0 256.1,60.7 255.4,61.3C254.6,62.0 253.9,62.7 253.1,63.4C252.4,64.1 251.7,64.8 250.9,65.5C250.2,66.2 249.4,66.9 248.7,67.6C247.9,68.3 247.2,69.0 246.4,69.7C245.7,70.4 244.9,71.1 244.2,71.8C243.4,72.4 242.7,73.1 241.9,73.8C241.1,74.4 240.4,75.0 239.6,75.7C238.8,76.3 238.0,76.9 237.2,77.5C236.4,78.1 235.6,78.6 234.8,79.2C234.0,79.8 233.2,80.3 232.4,80.8C231.6,81.4 230.8,81.9 229.9,82.4C229.1,82.9 228.3,83.4 227.4,83.9C226.6,84.4 225.7,84.9 224.9,85.3C224.0,85.8 223.1,86.3 222.2,86.7C221.4,87.1 220.5,87.6 219.6,88.0C218.7,88.4 217.7,88.8 216.8,89.2C215.9,89.6 215.0,90.0 214.1,90.4C213.1,90.8 212.2,91.1 211.2,91.5C210.3,91.8 209.3,92.1 208.3,92.5C207.4,92.8 206.4,93.1 205.4,93.4C204.5,93.7 203.5,93.9 202.5,94.2C201.5,94.5 200.5,94.7 199.5,95.0C198.6,95.3 197.6,95.5 196.6,95.7C195.6,96.0 194.6,96.2 193.6,96.4C192.6,96.6 191.6,96.9 190.6,97.1C189.6,97.3 188.6,97.5 187.6,97.7C186.6,97.9 185.6,98.1 184.6,98.3C183.6,98.5 182.6,98.7 181.6,98.9C180.6,99.1 179.6,99.3 178.6,99.5C177.6,99.7 176.5,99.9 175.5,100.1C174.5,100.3 173.5,100.5 172.5,100.6C171.5,100.8 170.5,101.0 169.5,101.2C168.4,101.4 167.4,101.5 166.4,101.7C165.4,101.9 164.4,102.1 163.4,102.3C162.4,102.4 161.4,102.6 160.4,102.8C159.4,103.0 158.4,103.1 157.4,103.3C156.4,103.5 155.4,103.7 154.4,103.9C153.5,104.1 152.5,104.3 151.5,104.5C150.5,104.7 149.5,104.9 148.6,105.1C147.6,105.3 146.6,105.5 145.6,105.8C144.6,106.0 143.7,106.2 142.7,106.5C141.7,106.7 140.8,106.9 139.8,107.2C138.8,107.5 137.8,107.7 136.9,108.0C135.9,108.3 135.0,108.6 134.1,108.9C133.2,109.2 132.3,109.6 131.5,109.9C130.7,110.2 129.9,110.6 129.2,110.9C128.6,111.3 127.9,111.7 127.4,112.1C126.9,112.4 126.5,112.8 126.2,113.2C125.9,113.6 125.7,114.0 125.6,114.3C125.6,114.7 125.7,115.1 125.9,115.4C126.1,115.8 126.4,116.2 126.9,116.5C127.3,116.8 127.9,117.1 128.5,117.4C129.2,117.7 129.9,118.0 130.7,118.2C131.5,118.5 132.4,118.7 133.3,118.9C134.2,119.2 135.1,119.4 136.1,119.6C137.1,119.7 138.1,119.9 139.1,120.1C140.2,120.3 141.2,120.4 142.2,120.5C143.3,120.7 144.3,120.8 145.3,121.0C146.3,121.1 147.4,121.2 148.4,121.4C149.4,121.5 150.4,121.7 151.4,121.8C152.4,122.0 153.4,122.2 154.3,122.4C155.2,122.6 156.2,122.9 157.1,123.2C157.9,123.4 158.8,123.8 159.6,124.1C160.4,124.5 161.2,124.9 161.9,125.4C162.6,125.9 163.2,126.4 163.8,127.0C164.4,127.6 164.9,128.3 165.4,129.0C165.9,129.7 166.3,130.5 166.7,131.3C167.0,132.1 167.3,133.0 167.6,133.9C167.9,134.8 168.1,135.7 168.3,136.6C168.5,137.6 168.6,138.6 168.8,139.6C168.9,140.6 169.0,141.7 169.1,142.7C169.2,143.7 169.3,144.8 169.3,145.8C169.4,146.9 169.5,147.9 169.6,149.0C169.6,150.0 169.6,151.1 169.7,152.1C169.7,153.2 169.7,154.3 169.8,155.3C169.8,156.3 169.9,157.4 169.9,158.3C170.0,159.3 170.1,160.3 170.2,161.2C170.3,162.1 170.5,163.0 170.7,163.8C170.9,164.6 171.1,165.4 171.4,166.1C171.6,166.9 172.0,167.5 172.4,168.1C172.8,168.7 173.2,169.3 173.8,169.7C174.3,170.2 174.9,170.6 175.6,171.0C176.2,171.4 176.9,171.7 177.7,172.0C178.4,172.3 179.2,172.6 180.1,172.9C180.9,173.2 181.7,173.5 182.6,173.8C183.4,174.1 184.3,174.4 185.1,174.8C186.0,175.2 186.8,175.5 187.7,176.0C188.5,176.4 189.3,176.9 190.1,177.4C190.8,177.9 191.6,178.5 192.2,179.1C192.9,179.7 193.6,180.4 194.2,181.1C194.8,181.8 195.3,182.6 195.9,183.4C196.4,184.2 196.8,185.0 197.2,185.8C197.6,186.7 198.0,187.5 198.3,188.4C198.6,189.3 198.9,190.2 199.1,191.1C199.4,192.0 199.6,192.9 199.8,193.7C200.0,194.5 200.2,195.3 200.4,196.1C200.6,196.8 200.8,197.5 201.0,198.2C201.2,198.8 201.5,199.3 201.8,199.8C202.1,200.3 202.4,200.6 202.8,200.9C203.2,201.2 203.6,201.3 204.1,201.4C204.6,201.4 205.2,201.3 205.8,201.2C206.4,201.1 207.1,200.9 207.7,200.6C208.4,200.4 209.2,200.1 209.9,199.7C210.7,199.4 211.5,199.0 212.3,198.6C213.2,198.2 214.0,197.8 214.9,197.3C215.7,196.9 216.6,196.5 217.4,196.1C218.3,195.7 219.1,195.2 219.9,194.8C220.7,194.4 221.4,194.1 222.1,193.7C222.8,193.3 223.5,192.9 224.0,192.5C224.6,192.1 225.1,191.8 225.4,191.3C225.8,190.9 226.1,190.4 226.3,189.9C226.5,189.4 226.5,188.9 226.5,188.4C226.5,187.8 226.3,187.2 226.1,186.6C225.9,186.0 225.5,185.4 225.1,184.8C224.7,184.1 224.2,183.4 223.7,182.8C223.2,182.1 222.6,181.3 222.0,180.6C221.4,179.9 220.7,179.1 220.0,178.4C219.4,177.6 218.7,176.9 218.0,176.1C217.3,175.4 216.7,174.6 216.0,173.9C215.3,173.1 214.7,172.4 214.0,171.6C213.4,170.8 212.7,170.0 212.1,169.2C211.5,168.5 210.9,167.7 210.3,166.9C209.7,166.0 209.1,165.2 208.5,164.4C207.9,163.6 207.3,162.8 206.8,161.9C206.2,161.1 205.7,160.3 205.2,159.4C204.7,158.5 204.2,157.7 203.7,156.8C203.3,155.9 202.8,155.0 202.4,154.1C202.0,153.2 201.6,152.3 201.3,151.4C200.9,150.5 200.6,149.5 200.4,148.6C200.1,147.7 200.0,146.7 199.8,145.8C199.7,144.8 199.6,143.9 199.6,143.0C199.6,142.0 199.7,141.1 199.8,140.2C200.0,139.3 200.2,138.5 200.5,137.7C200.7,136.9 201.1,136.1 201.6,135.4C202.0,134.7 202.5,134.0 203.1,133.5C203.7,132.9 204.3,132.4 205.0,132.0C205.6,131.6 206.4,131.3 207.1,131.1C207.8,130.9 208.6,130.8 209.4,130.8C210.2,130.8 211.1,130.9 211.9,131.1C212.7,131.2 213.5,131.5 214.3,131.8C215.1,132.2 215.9,132.6 216.7,133.1C217.5,133.5 218.3,134.0 219.0,134.5C219.7,135.0 220.5,135.6 221.2,136.1C221.9,136.6 222.5,137.1 223.1,137.5C223.8,137.9 224.4,138.3 224.9,138.5C225.5,138.8 226.0,139.0 226.5,139.1C227.0,139.2 227.4,139.1 227.8,139.0C228.2,138.8 228.5,138.5 228.8,138.2C229.1,137.8 229.4,137.2 229.6,136.6C229.8,136.0 230.0,135.3 230.2,134.6C230.4,133.8 230.6,133.0 230.7,132.1C230.9,131.2 231.0,130.3 231.2,129.3C231.4,128.4 231.6,127.4 231.8,126.4C232.0,125.5 232.2,124.5 232.5,123.5C232.8,122.6 233.2,121.7 233.6,120.8C233.9,119.8 234.4,119.0 234.9,118.1C235.3,117.3 235.9,116.4 236.4,115.6C237.0,114.8 237.6,114.0 238.2,113.3C238.9,112.5 239.5,111.8 240.2,111.0C240.9,110.3 241.6,109.6 242.3,108.9C243.1,108.1 243.8,107.4 244.6,106.7C245.3,106.0 246.1,105.3 246.8,104.6C247.6,104.0 248.3,103.3 249.1,102.6C249.8,101.9 250.6,101.2 251.3,100.5C252.1,99.8 252.8,99.0 253.6,98.3C254.3,97.6 255.0,96.9 255.8,96.1C256.5,95.4 257.2,94.7 257.9,93.9C258.6,93.2 259.3,92.4 260.0,91.7C260.7,90.9 261.4,90.2 262.1,89.4C262.8,88.6 263.4,87.9 264.1,87.1C264.7,86.3 265.4,85.5 266.0,84.7C266.6,83.9 267.2,83.1 267.8,82.2C268.4,81.4 269.0,80.6 269.6,79.8C270.2,78.9 270.7,78.1 271.2,77.2C271.8,76.4 272.3,75.5 272.7,74.6C273.2,73.7 273.6,72.9 274.0,72.0C274.4,71.1 274.7,70.2 275.0,69.3C275.3,68.4 275.6,67.5 275.7,66.6C275.9,65.8 276.0,64.9 276.0,64.1C276.0,63.2 276.0,62.4 275.8,61.6C275.7,60.8 275.5,60.1 275.2,59.4C274.9,58.7 274.6,58.0 274.2,57.5C273.7,56.9 273.3,56.4 272.7,56.0C272.2,55.6 271.6,55.2 270.9,55.0C270.3,54.8 269.6,54.6 268.9,54.6C268.2,54.5 267.5,54.5 266.8,54.6ZM176.3,44.6C176.0,44.6 175.8,44.7 175.6,44.8C175.3,44.9 175.1,45.0 174.8,45.1C174.6,45.2 174.3,45.3 174.1,45.4C173.9,45.6 173.6,45.7 173.4,45.8C173.2,46.0 172.9,46.1 172.7,46.2C172.5,46.4 172.2,46.5 172.0,46.7C171.8,46.8 171.5,46.9 171.3,47.1C171.1,47.3 170.9,47.4 170.6,47.6C170.4,47.7 170.2,47.9 169.9,48.0C169.7,48.2 169.5,48.4 169.3,48.5C169.0,48.7 168.8,48.9 168.6,49.1C168.4,49.2 168.2,49.4 168.0,49.6C167.8,49.8 167.6,50.0 167.4,50.2C167.2,50.4 167.0,50.6 166.8,50.8C166.6,51.0 166.4,51.2 166.2,51.4C166.1,51.6 165.9,51.8 165.7,52.0C165.5,52.2 165.4,52.5 165.2,52.7C165.0,52.9 164.9,53.1 164.7,53.4C164.6,53.6 164.4,53.8 164.3,54.1C164.1,54.3 164.0,54.5 163.8,54.8C163.7,55.0 163.5,55.2 163.4,55.5C163.3,55.7 163.1,56.0 163.0,56.2C162.9,56.5 162.8,56.7 162.7,57.0C162.5,57.2 162.4,57.5 162.3,57.7C162.2,58.0 162.1,58.3 162.0,58.5C161.9,58.8 161.8,59.1 161.8,59.3C161.7,59.6 161.6,59.9 161.5,60.2C161.4,60.4 161.3,60.7 161.2,61.0C161.2,61.3 161.1,61.5 161.0,61.8C160.9,62.1 160.9,62.4 160.8,62.7C160.7,63.0 160.7,63.3 160.6,63.6C160.6,63.9 160.5,64.2 160.4,64.5C160.4,64.8 160.4,65.1 160.3,65.4C160.3,65.7 160.3,66.0 160.3,66.3C160.3,66.6 160.3,66.9 160.3,67.2C160.3,67.5 160.3,67.8 160.3,68.1C160.3,68.4 160.4,68.7 160.4,69.0C160.4,69.2 160.5,69.5 160.6,69.8C160.6,70.1 160.7,70.4 160.7,70.7C160.8,71.0 160.9,71.3 160.9,71.5C161.0,71.8 161.1,72.1 161.1,72.4C161.2,72.7 161.3,73.0 161.4,73.2C161.5,73.5 161.6,73.8 161.7,74.0C161.8,74.3 161.9,74.6 162.0,74.8C162.1,75.1 162.2,75.4 162.3,75.6C162.4,75.9 162.5,76.2 162.6,76.4C162.8,76.7 162.9,76.9 163.0,77.1C163.2,77.4 163.3,77.6 163.5,77.9C163.6,78.1 163.8,78.3 163.9,78.6C164.1,78.8 164.2,79.0 164.4,79.3C164.5,79.5 164.7,79.7 164.8,80.0C165.0,80.2 165.2,80.4 165.3,80.6C165.5,80.8 165.7,81.1 165.8,81.3C166.0,81.5 166.2,81.7 166.4,81.9C166.5,82.1 166.7,82.3 166.9,82.6C167.1,82.8 167.2,83.0 167.4,83.2C167.6,83.4 167.8,83.6 168.0,83.8C168.2,83.9 168.4,84.1 168.6,84.3C168.8,84.5 169.0,84.7 169.2,84.8C169.4,85.0 169.6,85.2 169.9,85.3C170.1,85.5 170.3,85.6 170.5,85.8C170.8,85.9 171.0,86.1 171.2,86.2C171.5,86.4 171.7,86.5 172.0,86.6C172.2,86.7 172.5,86.9 172.7,87.0C173.0,87.1 173.2,87.2 173.5,87.3C173.8,87.4 174.0,87.5 174.3,87.7C174.5,87.8 174.8,87.9 175.1,88.0C175.3,88.1 175.6,88.2 175.9,88.2C176.2,88.3 176.4,88.4 176.7,88.5C177.0,88.6 177.2,88.7 177.5,88.8C177.8,88.8 178.1,88.9 178.3,89.0C178.6,89.1 178.9,89.1 179.2,89.2C179.5,89.3 179.8,89.3 180.0,89.4C180.3,89.4 180.6,89.5 180.9,89.5C181.2,89.5 181.6,89.6 181.9,89.6C182.2,89.6 182.5,89.6 182.8,89.6C183.1,89.6 183.4,89.6 183.7,89.6C184.1,89.6 184.4,89.6 184.7,89.6C185.0,89.6 185.3,89.6 185.6,89.5C186.0,89.5 186.3,89.4 186.6,89.4C186.9,89.4 187.2,89.3 187.5,89.2C187.8,89.2 188.1,89.1 188.4,89.1C188.7,89.0 189.0,88.9 189.3,88.9C189.5,88.8 189.8,88.7 190.1,88.6C190.4,88.5 190.7,88.5 190.9,88.4C191.2,88.3 191.5,88.2 191.7,88.1C192.0,88.0 192.3,87.9 192.5,87.8C192.8,87.7 193.0,87.5 193.3,87.4C193.5,87.3 193.8,87.2 194.0,87.0C194.3,86.9 194.5,86.8 194.8,86.6C195.0,86.5 195.2,86.3 195.5,86.2C195.7,86.0 195.9,85.9 196.1,85.7C196.4,85.6 196.6,85.4 196.8,85.2C197.0,85.1 197.3,84.9 197.5,84.7C197.7,84.6 197.9,84.4 198.1,84.2C198.3,84.0 198.5,83.9 198.8,83.7C199.0,83.5 199.2,83.3 199.4,83.1C199.6,83.0 199.8,82.8 199.9,82.6C200.1,82.4 200.3,82.2 200.5,82.0C200.7,81.8 200.9,81.6 201.0,81.4C201.2,81.1 201.4,80.9 201.6,80.7C201.7,80.5 201.9,80.3 202.1,80.1C202.2,79.9 202.4,79.6 202.6,79.4C202.7,79.2 202.9,79.0 203.0,78.7C203.2,78.5 203.3,78.3 203.5,78.0C203.6,77.8 203.8,77.6 203.9,77.3C204.0,77.1 204.2,76.8 204.3,76.6C204.4,76.3 204.5,76.1 204.6,75.8C204.8,75.5 204.9,75.3 205.0,75.0C205.1,74.7 205.2,74.5 205.2,74.2C205.3,73.9 205.4,73.6 205.5,73.3C205.6,73.1 205.6,72.8 205.7,72.5C205.8,72.2 205.8,71.9 205.9,71.6C206.0,71.3 206.0,71.0 206.1,70.7C206.1,70.4 206.2,70.1 206.2,69.8C206.3,69.6 206.3,69.3 206.4,69.0C206.4,68.7 206.5,68.4 206.5,68.1C206.5,67.8 206.5,67.5 206.5,67.2C206.5,66.9 206.6,66.6 206.6,66.2C206.5,65.9 206.5,65.6 206.5,65.3C206.5,65.0 206.5,64.7 206.5,64.4C206.4,64.1 206.4,63.8 206.3,63.6C206.3,63.3 206.2,63.0 206.1,62.7C206.1,62.4 206.0,62.1 205.9,61.8C205.9,61.5 205.8,61.2 205.7,60.9C205.7,60.6 205.6,60.4 205.5,60.1C205.4,59.8 205.3,59.5 205.3,59.2C205.2,59.0 205.1,58.7 205.0,58.4C204.9,58.2 204.8,57.9 204.7,57.6C204.6,57.4 204.5,57.1 204.4,56.8C204.2,56.6 204.1,56.3 204.0,56.1C203.9,55.8 203.7,55.6 203.6,55.3C203.4,55.1 203.3,54.9 203.1,54.6C203.0,54.4 202.8,54.2 202.7,53.9C202.5,53.7 202.4,53.5 202.2,53.3C202.0,53.0 201.9,52.8 201.7,52.6C201.5,52.4 201.3,52.2 201.2,52.0C201.0,51.8 200.8,51.6 200.6,51.3C200.4,51.1 200.2,50.9 200.0,50.7C199.8,50.5 199.6,50.3 199.4,50.1C199.2,49.9 199.0,49.7 198.8,49.5C198.6,49.3 198.4,49.2 198.2,49.0C198.0,48.8 197.8,48.6 197.6,48.4C197.4,48.3 197.1,48.1 196.9,47.9C196.7,47.7 196.5,47.6 196.2,47.4C196.0,47.3 195.8,47.1 195.5,47.0C195.3,46.8 195.1,46.7 194.8,46.6C194.6,46.4 194.3,46.3 194.1,46.2C193.8,46.1 193.6,46.0 193.3,45.8C193.1,45.7 192.8,45.6 192.6,45.5C192.3,45.4 192.0,45.3 191.8,45.2C191.5,45.1 191.2,45.0 190.9,44.9C190.7,44.8 190.4,44.8 190.1,44.7C189.8,44.6 189.5,44.5 189.2,44.5C188.9,44.4 188.6,44.4 188.3,44.3C188.0,44.3 187.7,44.2 187.4,44.2C187.1,44.2 186.8,44.1 186.4,44.1C186.1,44.1 185.8,44.1 185.5,44.1C185.1,44.0 184.8,44.0 184.5,44.0C184.2,44.0 183.8,44.0 183.5,44.0C183.2,44.0 182.8,44.0 182.5,44.0C182.2,44.0 181.8,44.0 181.5,44.0C181.2,44.0 180.9,44.0 180.6,44.0C180.2,44.0 179.9,44.0 179.6,44.1C179.3,44.1 179.0,44.1 178.7,44.1C178.4,44.1 178.2,44.2 177.9,44.2C177.6,44.3 177.3,44.3 177.1,44.4C176.8,44.4 176.5,44.5 176.3,44.6Z"/>
<path fill="#44bfba" fill-rule="evenodd" d="M252.2,126.5C252.0,126.6 251.8,126.7 251.5,126.7C251.3,126.8 251.1,126.9 250.9,127.0C250.7,127.1 250.5,127.2 250.3,127.3C250.1,127.4 249.9,127.5 249.6,127.6C249.4,127.7 249.2,127.8 249.0,127.9C248.8,128.0 248.6,128.2 248.3,128.3C248.1,128.4 247.9,128.5 247.7,128.7C247.5,128.8 247.2,128.9 247.0,129.1C246.8,129.2 246.6,129.3 246.4,129.5C246.2,129.6 246.0,129.8 245.8,129.9C245.6,130.1 245.4,130.3 245.2,130.5C245.0,130.6 244.8,130.8 244.6,131.0C244.5,131.2 244.3,131.4 244.1,131.6C243.9,131.8 243.8,132.0 243.6,132.2C243.4,132.4 243.3,132.6 243.1,132.8C243.0,133.0 242.8,133.2 242.7,133.4C242.5,133.6 242.4,133.8 242.2,134.1C242.1,134.3 242.0,134.5 241.8,134.7C241.7,134.9 241.5,135.1 241.4,135.4C241.3,135.6 241.2,135.8 241.1,136.0C241.0,136.3 240.9,136.5 240.8,136.7C240.7,136.9 240.6,137.2 240.5,137.4C240.4,137.6 240.3,137.8 240.2,138.1C240.2,138.3 240.1,138.5 240.0,138.8C240.0,139.0 239.9,139.2 239.9,139.5C239.8,139.7 239.7,140.0 239.7,140.2C239.6,140.4 239.6,140.7 239.5,140.9C239.5,141.1 239.4,141.4 239.4,141.6C239.3,141.8 239.3,142.1 239.3,142.3C239.2,142.6 239.2,142.8 239.2,143.1C239.1,143.3 239.1,143.5 239.1,143.8C239.1,144.0 239.1,144.3 239.1,144.5C239.1,144.7 239.1,145.0 239.1,145.2C239.1,145.5 239.2,145.7 239.2,145.9C239.2,146.2 239.2,146.4 239.3,146.7C239.3,146.9 239.4,147.2 239.4,147.4C239.5,147.6 239.5,147.9 239.6,148.1C239.6,148.3 239.7,148.6 239.7,148.8C239.8,149.0 239.9,149.3 239.9,149.5C240.0,149.8 240.0,150.0 240.1,150.2C240.2,150.5 240.3,150.7 240.3,150.9C240.4,151.1 240.5,151.4 240.6,151.6C240.7,151.8 240.8,152.1 240.9,152.3C241.0,152.5 241.1,152.7 241.2,152.9C241.3,153.2 241.5,153.4 241.6,153.6C241.7,153.8 241.8,154.0 242.0,154.2C242.1,154.5 242.2,154.7 242.4,154.9C242.5,155.1 242.7,155.3 242.8,155.5C243.0,155.7 243.1,155.9 243.3,156.2C243.4,156.4 243.6,156.6 243.8,156.8C243.9,157.0 244.1,157.2 244.3,157.4C244.5,157.6 244.6,157.7 244.8,157.9C245.0,158.1 245.2,158.3 245.4,158.5C245.6,158.6 245.8,158.8 246.0,159.0C246.2,159.1 246.4,159.3 246.6,159.4C246.8,159.6 247.1,159.7 247.3,159.8C247.5,159.9 247.7,160.1 247.9,160.2C248.1,160.3 248.4,160.5 248.6,160.6C248.8,160.7 249.0,160.8 249.2,160.9C249.5,161.0 249.7,161.1 249.9,161.2C250.1,161.3 250.4,161.4 250.6,161.5C250.8,161.6 251.0,161.7 251.3,161.8C251.5,161.9 251.7,162.0 251.9,162.1C252.2,162.2 252.4,162.2 252.6,162.3C252.9,162.4 253.1,162.4 253.3,162.5C253.6,162.5 253.8,162.5 254.1,162.6C254.3,162.6 254.5,162.6 254.8,162.7C255.0,162.7 255.3,162.7 255.5,162.7C255.8,162.7 256.0,162.7 256.3,162.7C256.5,162.7 256.8,162.7 257.0,162.8C257.2,162.8 257.5,162.8 257.8,162.8C258.0,162.8 258.2,162.8 258.5,162.8C258.8,162.7 259.0,162.8 259.2,162.7C259.5,162.7 259.7,162.7 260.0,162.7C260.2,162.7 260.5,162.7 260.7,162.7C261.0,162.7 261.2,162.6 261.5,162.6C261.7,162.6 262.0,162.5 262.2,162.5C262.4,162.4 262.7,162.4 262.9,162.3C263.1,162.3 263.4,162.2 263.6,162.1C263.8,162.1 264.1,162.0 264.3,161.9C264.5,161.8 264.8,161.7 265.0,161.6C265.2,161.5 265.4,161.4 265.7,161.3C265.9,161.2 266.1,161.1 266.3,161.0C266.6,160.9 266.8,160.8 267.0,160.7C267.2,160.5 267.4,160.4 267.7,160.3C267.9,160.2 268.1,160.0 268.3,159.9C268.5,159.8 268.7,159.7 268.9,159.5C269.2,159.4 269.4,159.2 269.6,159.1C269.8,158.9 270.0,158.8 270.2,158.6C270.4,158.5 270.6,158.3 270.8,158.1C271.0,157.9 271.2,157.8 271.4,157.6C271.6,157.4 271.8,157.2 271.9,157.0C272.1,156.8 272.3,156.6 272.5,156.4C272.6,156.2 272.8,156.0 273.0,155.8C273.1,155.6 273.3,155.3 273.4,155.1C273.6,154.9 273.7,154.7 273.8,154.5C273.9,154.3 274.1,154.0 274.2,153.8C274.3,153.6 274.4,153.4 274.5,153.2C274.6,152.9 274.7,152.7 274.9,152.5C275.0,152.3 275.1,152.0 275.2,151.8C275.2,151.6 275.3,151.4 275.4,151.1C275.5,150.9 275.6,150.7 275.7,150.5C275.8,150.2 275.8,150.0 275.9,149.8C276.0,149.5 276.1,149.3 276.1,149.1C276.2,148.8 276.3,148.6 276.3,148.4C276.4,148.1 276.4,147.9 276.5,147.7C276.5,147.4 276.5,147.2 276.6,146.9C276.6,146.7 276.6,146.5 276.6,146.2C276.7,146.0 276.7,145.7 276.7,145.5C276.7,145.2 276.7,145.0 276.7,144.7C276.7,144.5 276.7,144.3 276.7,144.0C276.7,143.8 276.7,143.5 276.7,143.3C276.7,143.0 276.7,142.8 276.6,142.5C276.6,142.3 276.6,142.0 276.6,141.8C276.5,141.6 276.5,141.3 276.5,141.1C276.4,140.8 276.4,140.6 276.3,140.4C276.3,140.1 276.2,139.9 276.1,139.7C276.1,139.4 276.0,139.2 275.9,139.0C275.8,138.7 275.8,138.5 275.7,138.3C275.6,138.1 275.5,137.8 275.4,137.6C275.3,137.4 275.2,137.2 275.1,136.9C275.0,136.7 274.9,136.5 274.8,136.3C274.7,136.1 274.6,135.8 274.4,135.6C274.3,135.4 274.2,135.2 274.1,135.0C273.9,134.7 273.8,134.5 273.7,134.3C273.5,134.1 273.4,133.9 273.2,133.7C273.1,133.4 272.9,133.2 272.8,133.0C272.6,132.8 272.5,132.6 272.3,132.4C272.2,132.2 272.0,132.0 271.8,131.8C271.7,131.6 271.5,131.4 271.3,131.2C271.1,131.0 270.9,130.8 270.8,130.6C270.6,130.5 270.4,130.3 270.2,130.1C270.0,130.0 269.8,129.8 269.6,129.7C269.4,129.5 269.2,129.4 268.9,129.2C268.7,129.1 268.5,129.0 268.3,128.8C268.1,128.7 267.9,128.6 267.7,128.4C267.4,128.3 267.2,128.2 267.0,128.1C266.8,128.0 266.6,127.9 266.3,127.8C266.1,127.6 265.9,127.5 265.7,127.4C265.4,127.3 265.2,127.2 265.0,127.1C264.8,127.0 264.5,126.9 264.3,126.9C264.1,126.8 263.8,126.7 263.6,126.6C263.4,126.5 263.1,126.5 262.9,126.4C262.7,126.4 262.4,126.3 262.2,126.3C262.0,126.2 261.7,126.2 261.5,126.1C261.2,126.1 261.0,126.1 260.7,126.1C260.5,126.1 260.2,126.0 260.0,126.0C259.7,126.0 259.5,126.0 259.2,126.0C259.0,126.0 258.8,126.0 258.5,126.0C258.2,126.0 258.0,126.0 257.8,126.0C257.5,126.0 257.2,126.0 257.0,126.0C256.8,126.0 256.5,126.0 256.3,126.0C256.0,126.0 255.8,126.0 255.5,126.0C255.3,126.0 255.1,126.0 254.8,126.1C254.6,126.1 254.4,126.1 254.1,126.1C253.9,126.1 253.7,126.2 253.5,126.2C253.2,126.2 253.0,126.3 252.8,126.3C252.6,126.4 252.4,126.4 252.2,126.5ZM308.3,126.1C307.8,126.3 307.2,126.6 306.7,127.0C306.1,127.3 305.6,127.8 305.0,128.4C304.5,128.9 303.9,129.6 303.4,130.3C302.9,131.0 302.4,131.7 301.8,132.5C301.3,133.3 300.8,134.1 300.3,134.9C299.8,135.7 299.3,136.6 298.8,137.5C298.2,138.3 297.7,139.2 297.2,140.1C296.7,140.9 296.2,141.8 295.6,142.6C295.1,143.5 294.5,144.3 293.9,145.2C293.4,146.0 292.8,146.8 292.2,147.7C291.6,148.5 291.0,149.3 290.4,150.1C289.7,150.9 289.1,151.7 288.4,152.4C287.8,153.2 287.1,153.9 286.4,154.6C285.7,155.4 285.0,156.1 284.2,156.7C283.5,157.4 282.7,158.0 281.9,158.6C281.2,159.3 280.4,159.9 279.5,160.4C278.7,161.0 277.9,161.5 277.0,162.0C276.1,162.5 275.3,163.0 274.4,163.4C273.4,163.8 272.5,164.2 271.6,164.5C270.6,164.9 269.7,165.2 268.7,165.5C267.7,165.7 266.7,166.0 265.7,166.2C264.8,166.3 263.7,166.5 262.7,166.6C261.7,166.7 260.7,166.7 259.7,166.7C258.7,166.7 257.6,166.7 256.6,166.6C255.6,166.5 254.6,166.4 253.6,166.2C252.6,166.0 251.6,165.8 250.6,165.5C249.6,165.3 248.7,165.0 247.7,164.6C246.8,164.3 245.9,163.9 245.0,163.4C244.1,163.0 243.2,162.5 242.3,162.0C241.4,161.5 240.6,161.0 239.7,160.5C238.9,159.9 238.1,159.3 237.3,158.7C236.5,158.1 235.7,157.5 234.9,156.8C234.2,156.2 233.4,155.5 232.7,154.8C231.9,154.1 231.2,153.4 230.5,152.7C229.7,152.0 229.0,151.2 228.3,150.5C227.6,149.8 226.9,149.0 226.2,148.3C225.5,147.5 224.9,146.8 224.2,146.0C223.5,145.2 222.8,144.5 222.1,143.8C221.4,143.0 220.7,142.3 220.0,141.6C219.3,141.0 218.6,140.3 217.9,139.7C217.1,139.1 216.4,138.6 215.7,138.1C215.0,137.6 214.2,137.2 213.5,136.9C212.8,136.6 212.1,136.4 211.4,136.3C210.7,136.2 210.0,136.1 209.4,136.2C208.8,136.3 208.2,136.6 207.6,136.9C207.1,137.2 206.6,137.6 206.2,138.1C205.8,138.6 205.4,139.2 205.1,139.9C204.9,140.6 204.7,141.3 204.6,142.1C204.4,142.9 204.4,143.8 204.4,144.7C204.5,145.5 204.6,146.4 204.8,147.4C205.0,148.3 205.2,149.2 205.5,150.1C205.8,151.0 206.2,152.0 206.6,152.9C207.0,153.8 207.5,154.7 208.0,155.6C208.5,156.4 209.0,157.3 209.5,158.2C210.0,159.0 210.6,159.9 211.2,160.7C211.8,161.6 212.4,162.4 213.0,163.2C213.6,164.0 214.2,164.8 214.8,165.6C215.5,166.4 216.1,167.2 216.8,168.0C217.4,168.8 218.1,169.6 218.7,170.3C219.4,171.1 220.1,171.9 220.8,172.6C221.5,173.4 222.2,174.2 222.9,174.9C223.6,175.6 224.3,176.4 225.0,177.1C225.8,177.8 226.5,178.6 227.2,179.3C227.9,180.0 228.6,180.8 229.3,181.5C230.0,182.2 230.7,183.0 231.3,183.8C231.9,184.5 232.6,185.3 233.2,186.1C233.7,186.9 234.3,187.7 234.8,188.5C235.3,189.3 235.8,190.2 236.2,191.1C236.6,192.0 237.0,192.9 237.3,193.9C237.7,194.8 237.9,195.8 238.2,196.8C238.4,197.8 238.6,198.8 238.8,199.9C239.0,200.9 239.1,202.0 239.2,203.1C239.3,204.2 239.4,205.2 239.5,206.3C239.6,207.4 239.7,208.6 239.8,209.7C239.8,210.8 239.9,211.9 239.9,213.1C240.0,214.2 240.0,215.3 240.1,216.4C240.1,217.6 240.2,218.7 240.2,219.8C240.3,220.9 240.4,222.1 240.4,223.2C240.5,224.3 240.6,225.4 240.6,226.5C240.7,227.6 240.8,228.8 240.8,229.9C240.9,231.0 240.9,232.1 241.0,233.2C241.1,234.4 241.1,235.5 241.2,236.6C241.3,237.7 241.4,238.8 241.4,239.9C241.5,241.0 241.6,242.1 241.7,243.2C241.8,244.4 241.8,245.5 241.9,246.6C242.0,247.7 242.1,248.8 242.1,249.9C242.2,251.0 242.3,252.1 242.4,253.2C242.5,254.3 242.6,255.4 242.7,256.5C242.8,257.6 242.9,258.8 243.0,259.9C243.1,261.0 243.2,262.1 243.3,263.2C243.4,264.3 243.5,265.4 243.6,266.5C243.7,267.6 243.8,268.7 244.0,269.8C244.1,270.9 244.2,271.9 244.4,273.0C244.5,274.1 244.7,275.2 244.8,276.2C245.0,277.3 245.1,278.4 245.3,279.4C245.5,280.4 245.7,281.4 246.0,282.4C246.2,283.4 246.5,284.4 246.8,285.3C247.1,286.2 247.5,287.1 247.9,287.9C248.2,288.7 248.7,289.5 249.1,290.2C249.6,290.8 250.1,291.5 250.6,292.0C251.2,292.5 251.8,292.9 252.4,293.2C253.0,293.5 253.6,293.7 254.2,293.8C254.9,293.9 255.5,293.9 256.1,293.7C256.7,293.6 257.4,293.3 257.9,293.0C258.5,292.6 259.1,292.1 259.6,291.6C260.1,291.0 260.5,290.3 261.0,289.6C261.4,288.8 261.8,288.0 262.1,287.1C262.4,286.3 262.7,285.3 262.9,284.3C263.2,283.4 263.4,282.3 263.5,281.3C263.7,280.2 263.9,279.1 264.0,278.0C264.1,277.0 264.2,275.8 264.3,274.7C264.3,273.6 264.4,272.5 264.4,271.3C264.5,270.2 264.6,269.0 264.6,267.9C264.7,266.8 264.7,265.7 264.8,264.7C264.9,263.6 264.9,262.6 265.0,261.7C265.1,260.8 265.2,259.9 265.3,259.2C265.4,258.4 265.5,257.7 265.6,257.2C265.7,256.7 265.9,256.2 266.0,255.9C266.2,255.7 266.3,255.5 266.5,255.5C266.7,255.6 266.8,255.8 267.0,256.1C267.2,256.4 267.3,256.9 267.4,257.4C267.6,258.0 267.7,258.7 267.9,259.5C268.0,260.2 268.2,261.1 268.3,262.0C268.4,263.0 268.5,264.0 268.7,265.0C268.8,266.0 268.9,267.1 269.0,268.2C269.1,269.3 269.2,270.4 269.3,271.5C269.4,272.6 269.6,273.7 269.7,274.7C269.9,275.8 270.1,276.8 270.3,277.8C270.5,278.8 270.7,279.7 271.0,280.6C271.3,281.5 271.6,282.3 272.0,283.1C272.4,283.8 272.8,284.5 273.2,285.1C273.6,285.7 274.1,286.2 274.6,286.5C275.1,286.9 275.7,287.2 276.2,287.3C276.8,287.4 277.4,287.4 277.9,287.3C278.5,287.2 279.1,287.0 279.6,286.7C280.1,286.3 280.7,285.9 281.2,285.3C281.7,284.8 282.2,284.2 282.6,283.5C283.0,282.8 283.4,282.0 283.8,281.2C284.2,280.4 284.5,279.5 284.8,278.5C285.1,277.6 285.4,276.7 285.6,275.7C285.9,274.7 286.1,273.7 286.3,272.7C286.5,271.6 286.7,270.6 286.8,269.6C287.0,268.5 287.1,267.5 287.3,266.4C287.4,265.3 287.5,264.2 287.6,263.2C287.7,262.1 287.8,261.0 287.9,259.9C288.0,258.8 288.1,257.7 288.2,256.6C288.3,255.5 288.3,254.3 288.4,253.2C288.4,252.1 288.5,251.0 288.5,249.8C288.6,248.7 288.6,247.6 288.6,246.4C288.7,245.3 288.7,244.1 288.7,243.0C288.7,241.8 288.7,240.6 288.7,239.5C288.7,238.3 288.7,237.2 288.8,236.0C288.8,234.8 288.8,233.7 288.8,232.5C288.8,231.3 288.8,230.2 288.8,229.0C288.8,227.8 288.8,226.7 288.8,225.5C288.8,224.3 288.8,223.2 288.8,222.0C288.8,220.8 288.8,219.7 288.8,218.5C288.8,217.3 288.8,216.2 288.8,215.0C288.8,213.8 288.8,212.7 288.8,211.5C288.8,210.3 288.7,209.2 288.8,208.0C288.8,206.8 288.8,205.7 288.8,204.5C288.8,203.4 288.8,202.2 288.9,201.1C288.9,199.9 289.0,198.8 289.1,197.7C289.1,196.6 289.3,195.5 289.4,194.4C289.6,193.3 289.7,192.3 290.0,191.3C290.2,190.2 290.5,189.2 290.8,188.2C291.1,187.3 291.5,186.3 291.9,185.4C292.3,184.5 292.7,183.6 293.2,182.7C293.7,181.8 294.2,181.0 294.8,180.1C295.3,179.3 295.9,178.5 296.5,177.7C297.1,176.8 297.7,176.0 298.3,175.2C298.9,174.4 299.6,173.6 300.2,172.8C300.8,172.0 301.4,171.2 302.0,170.4C302.6,169.5 303.2,168.7 303.8,167.9C304.3,167.0 304.9,166.2 305.4,165.3C305.9,164.5 306.4,163.6 306.9,162.7C307.4,161.8 307.9,160.9 308.4,160.0C308.8,159.1 309.3,158.2 309.7,157.3C310.1,156.4 310.5,155.5 310.9,154.5C311.2,153.6 311.6,152.7 311.9,151.7C312.3,150.7 312.6,149.8 312.9,148.8C313.2,147.8 313.5,146.9 313.7,145.9C314.0,144.9 314.2,143.9 314.4,142.9C314.6,141.9 314.7,140.9 314.8,139.9C314.9,138.9 315.0,137.9 315.0,136.9C315.0,136.0 315.0,135.0 314.9,134.1C314.9,133.2 314.7,132.3 314.5,131.5C314.3,130.7 314.1,130.0 313.8,129.3C313.5,128.6 313.1,128.0 312.8,127.6C312.4,127.1 311.9,126.7 311.4,126.4C311.0,126.1 310.4,126.0 309.9,125.9C309.4,125.9 308.9,125.9 308.3,126.1Z"/>
<path fill="#6fbf5a" fill-rule="evenodd" d="M175.9,177.8C175.1,177.9 174.3,178.0 173.6,178.2C172.8,178.4 172.0,178.7 171.2,179.0C170.5,179.3 169.7,179.7 169.0,180.1C168.3,180.6 167.6,181.0 167.0,181.6C166.3,182.1 165.7,182.7 165.2,183.3C164.6,183.9 164.1,184.6 163.6,185.3C163.1,186.0 162.7,186.7 162.3,187.5C161.9,188.3 161.6,189.1 161.4,189.9C161.1,190.7 160.9,191.6 160.8,192.4C160.7,193.3 160.6,194.1 160.6,195.0C160.6,195.9 160.6,196.8 160.8,197.6C160.9,198.5 161.1,199.3 161.3,200.2C161.6,201.0 161.9,201.8 162.2,202.6C162.6,203.4 163.0,204.1 163.5,204.9C163.9,205.6 164.5,206.2 165.1,206.9C165.6,207.5 166.3,208.1 166.9,208.7C167.6,209.2 168.3,209.8 169.0,210.2C169.6,210.7 170.4,211.2 171.0,211.6C171.7,212.0 172.3,212.4 172.9,212.7C173.5,213.0 174.0,213.3 174.4,213.6C174.9,213.9 175.3,214.2 175.5,214.4C175.8,214.6 175.9,214.8 175.9,215.0C175.9,215.2 175.8,215.4 175.6,215.5C175.3,215.7 174.9,215.8 174.5,215.8C174.0,215.9 173.4,215.9 172.8,216.0C172.2,216.0 171.4,216.0 170.6,215.9C169.9,215.9 169.0,215.8 168.1,215.7C167.3,215.6 166.3,215.5 165.4,215.4C164.5,215.2 163.5,215.0 162.6,214.8C161.7,214.6 160.8,214.4 159.9,214.1C159.0,213.9 158.1,213.6 157.2,213.4C156.3,213.1 155.4,212.8 154.5,212.5C153.7,212.2 152.8,211.9 151.9,211.5C151.1,211.2 150.2,210.9 149.4,210.6C148.6,210.2 147.7,209.9 146.9,209.6C146.1,209.3 145.3,209.0 144.5,208.8C143.7,208.6 142.9,208.4 142.2,208.3C141.5,208.1 140.8,208.1 140.2,208.1C139.6,208.1 139.0,208.1 138.5,208.3C138.0,208.4 137.5,208.6 137.1,208.9C136.8,209.3 136.5,209.7 136.3,210.1C136.1,210.6 136.0,211.1 136.0,211.7C136.0,212.2 136.1,212.9 136.3,213.5C136.4,214.1 136.7,214.8 137.0,215.5C137.3,216.2 137.7,216.9 138.2,217.6C138.6,218.2 139.2,218.9 139.7,219.6C140.3,220.3 140.9,220.9 141.5,221.6C142.2,222.2 142.9,222.8 143.6,223.4C144.2,224.0 145.0,224.6 145.7,225.1C146.4,225.7 147.2,226.2 147.9,226.7C148.7,227.3 149.4,227.8 150.2,228.3C150.9,228.8 151.7,229.4 152.4,229.9C153.1,230.4 153.8,231.0 154.5,231.5C155.2,232.1 155.8,232.7 156.4,233.3C157.0,233.9 157.6,234.5 158.2,235.2C158.7,235.9 159.2,236.6 159.6,237.3C160.0,238.1 160.4,238.9 160.8,239.7C161.1,240.5 161.4,241.4 161.7,242.2C161.9,243.1 162.2,244.1 162.3,245.0C162.5,245.9 162.7,246.9 162.8,247.9C162.9,248.9 163.0,249.9 163.1,250.9C163.2,251.9 163.3,252.9 163.4,254.0C163.4,255.0 163.5,256.0 163.6,257.1C163.6,258.1 163.7,259.2 163.7,260.2C163.7,261.3 163.8,262.3 163.8,263.4C163.8,264.5 163.9,265.5 163.9,266.6C163.9,267.7 163.9,268.7 163.9,269.8C164.0,270.9 164.0,271.9 164.0,273.0C164.0,274.1 164.0,275.2 164.0,276.2C164.0,277.3 164.0,278.4 164.0,279.5C164.0,280.6 164.1,281.6 164.1,282.7C164.1,283.8 164.1,284.9 164.2,285.9C164.2,287.0 164.2,288.0 164.3,289.1C164.3,290.2 164.4,291.2 164.5,292.2C164.6,293.3 164.6,294.3 164.8,295.3C164.9,296.3 165.0,297.3 165.1,298.3C165.3,299.3 165.4,300.3 165.6,301.2C165.8,302.2 166.0,303.1 166.3,304.0C166.5,304.9 166.8,305.7 167.1,306.5C167.5,307.3 167.8,308.1 168.2,308.8C168.6,309.4 169.0,310.0 169.5,310.5C170.0,311.1 170.4,311.5 171.0,311.8C171.5,312.2 172.0,312.4 172.6,312.5C173.1,312.7 173.7,312.7 174.2,312.6C174.7,312.5 175.3,312.3 175.8,312.0C176.3,311.7 176.8,311.2 177.3,310.7C177.7,310.3 178.2,309.7 178.6,309.0C179.0,308.4 179.4,307.6 179.7,306.9C180.0,306.1 180.3,305.2 180.6,304.4C180.8,303.5 181.0,302.6 181.2,301.6C181.4,300.7 181.5,299.7 181.7,298.7C181.8,297.7 182.0,296.7 182.1,295.8C182.3,294.8 182.4,293.9 182.5,293.0C182.6,292.1 182.8,291.3 182.9,290.5C183.0,289.7 183.1,289.0 183.3,288.4C183.4,287.8 183.5,287.3 183.7,286.9C183.8,286.5 184.0,286.2 184.1,286.1C184.3,286.0 184.5,286.0 184.6,286.2C184.8,286.3 184.9,286.6 185.1,287.1C185.2,287.5 185.3,288.0 185.4,288.7C185.6,289.3 185.7,290.0 185.8,290.8C185.9,291.6 186.0,292.5 186.1,293.4C186.2,294.3 186.3,295.3 186.4,296.3C186.6,297.3 186.7,298.3 186.8,299.3C187.0,300.3 187.1,301.3 187.3,302.2C187.5,303.1 187.7,304.1 188.0,304.9C188.3,305.8 188.6,306.6 188.9,307.3C189.3,308.1 189.6,308.8 190.0,309.4C190.5,310.0 190.9,310.5 191.4,310.9C191.9,311.3 192.4,311.7 193.0,311.9C193.5,312.1 194.1,312.2 194.6,312.2C195.2,312.2 195.8,312.0 196.3,311.8C196.8,311.6 197.4,311.3 197.9,310.8C198.4,310.4 198.8,309.9 199.2,309.3C199.7,308.7 200.1,308.0 200.4,307.3C200.8,306.6 201.1,305.7 201.4,304.9C201.6,304.1 201.9,303.2 202.1,302.2C202.3,301.3 202.4,300.3 202.6,299.4C202.7,298.4 202.8,297.4 203.0,296.4C203.1,295.4 203.1,294.4 203.2,293.4C203.3,292.3 203.4,291.3 203.4,290.2C203.5,289.2 203.5,288.1 203.5,287.1C203.6,286.0 203.6,285.0 203.6,283.9C203.7,282.8 203.7,281.8 203.7,280.7C203.7,279.7 203.8,278.6 203.8,277.5C203.8,276.5 203.8,275.4 203.9,274.4C203.9,273.3 203.9,272.2 203.9,271.2C203.9,270.1 203.9,269.1 204.0,268.1C204.0,267.0 204.0,266.0 204.0,265.0C204.0,263.9 204.1,262.9 204.1,261.9C204.1,260.9 204.1,259.8 204.1,258.8C204.1,257.8 204.1,256.8 204.0,255.7C204.0,254.7 204.0,253.7 204.0,252.6C204.0,251.6 204.0,250.6 204.0,249.5C204.0,248.5 204.0,247.5 204.0,246.4C204.0,245.4 204.0,244.4 204.1,243.4C204.2,242.4 204.2,241.3 204.4,240.4C204.5,239.4 204.6,238.4 204.8,237.5C205.0,236.5 205.3,235.6 205.6,234.7C205.9,233.9 206.2,233.0 206.6,232.2C207.0,231.4 207.4,230.6 207.9,229.8C208.4,229.1 208.9,228.3 209.4,227.6C210.0,226.9 210.5,226.2 211.1,225.6C211.7,224.9 212.4,224.2 213.0,223.6C213.6,222.9 214.3,222.3 214.9,221.6C215.5,221.0 216.2,220.3 216.8,219.7C217.5,219.0 218.1,218.4 218.7,217.7C219.3,217.0 219.9,216.3 220.4,215.6C221.0,214.9 221.5,214.2 222.0,213.4C222.5,212.7 222.9,211.9 223.3,211.2C223.7,210.4 224.0,209.6 224.3,208.9C224.6,208.2 224.8,207.4 224.9,206.7C225.0,206.0 225.1,205.3 225.0,204.7C225.0,204.1 224.9,203.5 224.7,203.0C224.5,202.4 224.3,202.0 223.9,201.6C223.6,201.3 223.2,201.0 222.7,200.8C222.2,200.6 221.6,200.5 221.0,200.4C220.5,200.4 219.8,200.5 219.2,200.6C218.5,200.8 217.8,201.0 217.1,201.3C216.4,201.5 215.7,201.9 214.9,202.2C214.2,202.6 213.4,203.0 212.6,203.5C211.9,203.9 211.1,204.4 210.3,204.8C209.5,205.3 208.8,205.8 208.0,206.2C207.2,206.7 206.4,207.2 205.6,207.6C204.8,208.1 204.0,208.5 203.2,209.0C202.4,209.4 201.6,209.8 200.8,210.2C200.0,210.6 199.1,211.0 198.3,211.3C197.5,211.7 196.7,212.0 195.9,212.3C195.1,212.5 194.4,212.8 193.7,212.9C193.0,213.1 192.4,213.3 191.8,213.3C191.2,213.4 190.7,213.4 190.3,213.4C189.8,213.4 189.5,213.3 189.2,213.1C188.9,212.9 188.8,212.7 188.7,212.4C188.7,212.1 188.7,211.7 188.8,211.3C189.0,210.9 189.2,210.4 189.4,209.9C189.7,209.4 190.0,208.8 190.4,208.2C190.7,207.6 191.1,206.9 191.5,206.2C191.9,205.6 192.3,204.8 192.6,204.1C193.0,203.3 193.3,202.5 193.6,201.7C193.9,200.9 194.2,200.1 194.4,199.2C194.6,198.4 194.7,197.5 194.8,196.7C194.9,195.8 194.9,194.9 194.8,194.1C194.8,193.2 194.6,192.3 194.4,191.5C194.3,190.6 194.0,189.8 193.7,189.0C193.4,188.2 193.0,187.4 192.6,186.7C192.2,185.9 191.7,185.2 191.2,184.5C190.7,183.8 190.1,183.2 189.5,182.6C188.9,182.0 188.2,181.4 187.6,180.9C186.9,180.5 186.2,180.0 185.4,179.6C184.7,179.2 183.9,178.9 183.1,178.6C182.4,178.4 181.6,178.1 180.8,178.0C180.0,177.8 179.2,177.7 178.3,177.7C177.5,177.7 176.7,177.7 175.9,177.8Z"/>
</svg>